<?xml version="1.0" encoding="utf-8"?>
<!-- Generator: Adobe Illustrator 23.0.2, SVG Export Plug-In . SVG Version: 6.00 Build 0)  -->
<svg version="1.1" id="Camada_1" xmlns="http://www.w3.org/2000/svg" xmlns:xlink="http://www.w3.org/1999/xlink" x="0px" y="0px"
	 viewBox="0 0 64 64" style="enable-background:new 0 0 64 64;" xml:space="preserve">
<style type="text/css">
	.st0{fill-rule:evenodd;clip-rule:evenodd;fill:#191615;}
</style>
<path class="st0" d="M21.3,38.5c0-1.2,0.2-1.8,1.5-2.3c1.7-0.3,3.2-0.8,2.5-2.1c-2.3-4.1-0.6-6.4,1.7-6.4c1.7,0,2.9,1.1,2.9,2.9
	c0,4.5-2.5,2.5-2.5,8.6v1.5h-6.1V38.5z M42.7,40.7H28.9v-1.5c0-2.1-0.2-3.2,2-3.8c2.1-0.5,3.5-0.9,2.5-2.8c-2.9-5.7-0.8-8.8,2.5-8.8
	c3.2,0,5.4,3.2,2.5,8.8c-1.1,1.8,0.3,2.3,2.5,2.8c2.1,0.5,2,1.7,2,3.8V40.7z M33.5,48.2v-4.5h-3.1v4.5c-7.2-0.8-13.1-6.4-13.7-13.7
	h4.5v-3.1h-4.5c0.6-7.2,6.4-13.1,13.7-13.8v4.6h3.1v-4.6c7.2,0.8,13.1,6.4,13.7,13.7h-4.5v3.1h4.5C46.6,41.8,40.8,47.6,33.5,48.2z
	 M32,14.6c-10.1,0-18.4,8.3-18.4,18.4S21.9,51.4,32,51.4S50.4,43.1,50.4,33S42.1,14.6,32,14.6z"/>
</svg>
