<?xml version="1.0" encoding="utf-8"?>
<!-- Generator: Adobe Illustrator 23.0.2, SVG Export Plug-In . SVG Version: 6.00 Build 0)  -->
<svg version="1.1" id="Camada_1" xmlns="http://www.w3.org/2000/svg" xmlns:xlink="http://www.w3.org/1999/xlink" x="0px" y="0px"
	 viewBox="0 0 64 64" style="enable-background:new 0 0 64 64;" xml:space="preserve">
<style type="text/css">
	.st0{fill-rule:evenodd;clip-rule:evenodd;fill:#191615;}
	.st1{enable-background:new    ;}
	.st2{fill:#191615;}
</style>
<g>
	<path class="st0" d="M48.5,33.6c0-9.1-7.4-16.5-16.5-16.5s-16.5,7.4-16.5,16.5c0,7.1,5.1,16.5,16.5,16.5S48.5,40.7,48.5,33.6z
		 M32,46.8c-7.3,0-13.2-5.9-13.2-13.2S24.7,20.5,32,20.5s13.2,5.9,13.2,13.2S39.3,46.8,32,46.8z M13.5,26.6c-0.8-1.3-1.3-3-1.3-4.5
		c0-4.6,3.6-8.2,8.2-8.2c1.5,0,3.1,0.5,4.5,1.3C19.6,17.2,15.5,21.3,13.5,26.6z M43.5,13.9c-1.5,0-3.1,0.5-4.5,1.3
		c5.3,2,9.4,6.1,11.4,11.4c0.8-1.3,1.3-3,1.3-4.5C51.8,17.5,48.2,13.9,43.5,13.9z"/>
	<g class="st1">
		<path class="st2" d="M31.2,29.2h-4.4l-0.2,1.7c0.2,0,0.5,0,0.7,0c1.1,0,2.2,0.2,3,0.8c0.9,0.6,1.4,1.5,1.4,2.8c0,2.1-1.8,4-4.9,4
			c-1.4,0-2.5-0.3-3.2-0.6l0.5-2c0.5,0.2,1.5,0.6,2.6,0.6c1.1,0,2.3-0.5,2.3-1.7c0-1.2-0.9-1.9-3.2-1.9c-0.6,0-1.1,0-1.5,0.1
			l0.7-5.9h6.2V29.2z"/>
		<path class="st2" d="M34.3,29.8l0.8,1.4c0.2,0.4,0.5,0.9,0.7,1.3h0c0.2-0.5,0.4-0.9,0.7-1.3l0.7-1.4h2.9l-2.8,4.1l2.8,4.5h-3
			l-0.9-1.5c-0.2-0.4-0.5-0.9-0.7-1.3h-0.1c-0.2,0.5-0.4,0.9-0.6,1.3l-0.8,1.5h-2.9l2.9-4.3l-2.8-4.2H34.3z"/>
	</g>
</g>
</svg>
