<?xml version="1.0" encoding="utf-8"?>
<!-- Generator: Adobe Illustrator 23.0.2, SVG Export Plug-In . SVG Version: 6.00 Build 0)  -->
<svg version="1.1" id="Camada_1" xmlns="http://www.w3.org/2000/svg" xmlns:xlink="http://www.w3.org/1999/xlink" x="0px" y="0px"
	 viewBox="0 0 64 64" style="enable-background:new 0 0 64 64;" xml:space="preserve">
<style type="text/css">
	.st0{fill:#171717;}
</style>
<path class="st0" d="M33.2,10.7c0.8,0.1,1.7,0.2,2.5,0.4c6.5,1.7,10.7,5.8,12.3,12.3C50.1,32.2,44.5,41,35.5,43
	c-6.4,1.4-13.4-1.4-16.9-6.9c0-0.1-0.1-0.1-0.2-0.3c0.2,0,0.4,0,0.5,0c6,0,11.9,0,17.9,0c2.5,0,4.1-1.6,4.1-4.1c0-2.3,0-4.7,0-7
	c0-1-0.5-1.4-1.4-1.4c-1.2,0-2.4,0-3.6,0c0-1.3,0-2.5,0-3.7c0-0.9-0.2-1.6-0.8-2.3c-0.7-0.9-1.7-1.4-2.9-1.5c-0.9,0-1.7,0-2.6,0
	c-0.8,0-1.3,0.5-1.3,1.3c0,1.6,0,3.1,0,4.7c0,1-0.5,1.5-1.5,1.5c-3.4,0-6.8,0-10.1,0c-0.1,0-0.2,0-0.4,0c0-0.2,0.1-0.4,0.1-0.6
	c1.9-6.1,6-10,12.2-11.6c0.8-0.2,1.6-0.3,2.3-0.4C31.7,10.7,32.5,10.7,33.2,10.7z"/>
<path class="st0" d="M28.4,33.3c0-2.6,0-5.2,0-7.7c1.2-0.5,2-1.3,2.3-2.5c0.1-0.4,0.1-0.7,0.1-1.1c0-1.2,0-2.4,0-3.6
	c0.5,0,1-0.1,1.5,0c0.6,0.1,1,0.6,1,1.3c0,1.6,0,3.1,0,4.7c0,1,0.5,1.5,1.5,1.5c1.2,0,2.3,0,3.5,0c0,0.2,0,0.3,0,0.4
	c0,1.9,0,3.8,0,5.6c0,1-0.5,1.5-1.5,1.5c-2.7,0-5.4,0-8.1,0C28.6,33.3,28.5,33.3,28.4,33.3z"/>
<path class="st0" d="M28.5,45.5c-1.2,2.1-2.4,4.2-3.6,6.3c-0.2,0.3-0.4,0.7-0.6,1c-0.3,0.5-0.7,0.7-1.2,0.7c-0.6-0.1-0.9-0.4-1.1-1
	c-0.5-1.8-0.9-3.5-1.4-5.3c0-0.1-0.1-0.2-0.1-0.4c-1,0.3-1.9,0.5-2.8,0.8c-0.9,0.2-1.9,0.5-2.8,0.7c-0.5,0.1-1,0-1.3-0.4
	c-0.3-0.4-0.4-0.9-0.1-1.4c1.4-2.4,2.8-4.8,4.2-7.2c0,0,0,0,0.1-0.1C20.6,42.5,24.2,44.6,28.5,45.5z"/>
<path class="st0" d="M43.6,46.8c-0.5,1.7-0.9,3.4-1.3,5.1c0,0.1-0.1,0.3-0.1,0.4c-0.1,0.6-0.5,1-1.1,1.1c-0.6,0.1-1-0.2-1.3-0.8
	c-0.8-1.4-1.6-2.9-2.5-4.3c-0.5-0.9-1.1-1.9-1.6-2.8c4.3-0.9,7.9-3,10.8-6.3c0.1,0.1,0.1,0.2,0.2,0.3c1.3,2.3,2.6,4.6,4,6.9
	c0.3,0.5,0.4,1.1,0,1.6c-0.4,0.5-0.9,0.6-1.5,0.4c-1.6-0.5-3.3-0.9-4.9-1.3C44,46.9,43.8,46.8,43.6,46.8z"/>
<path class="st0" d="M25.8,25.8c0,2.5,0,5,0,7.5c-0.1,0-0.3,0-0.4,0c-2.7,0-5.3,0-8,0c-0.3,0-0.4-0.1-0.5-0.4
	c-0.8-2.1-1.2-4.2-1.1-6.4c0-0.2,0-0.4,0.1-0.7C19.2,25.8,22.5,25.8,25.8,25.8z"/>
</svg>
